<?xml version="1.0" standalone="no"?>
<!DOCTYPE svg PUBLIC "-//W3C//DTD SVG 20010904//EN"
 "http://www.w3.org/TR/2001/REC-SVG-20010904/DTD/svg10.dtd">
<svg version="1.0" xmlns="http://www.w3.org/2000/svg"
 width="64.000000pt" height="64.000000pt" viewBox="0 0 64.000000 64.000000"
 preserveAspectRatio="xMidYMid meet">

<g transform="translate(0.000000,64.000000) scale(0.100000,-0.100000)"
fill="#000000" stroke="none">
<path d="M275 609 c-23 -10 -62 -19 -92 -19 -29 0 -53 -1 -53 -3 0 -1 -9 -65
-20 -142 -11 -77 -20 -148 -20 -158 0 -19 32 -56 65 -74 18 -11 17 -14 -19
-68 l-37 -57 47 4 48 3 17 -45 16 -44 32 54 c17 30 31 58 31 63 0 4 14 7 30 7
17 0 30 -3 30 -7 0 -5 14 -33 31 -63 l32 -54 16 44 17 45 48 -3 47 -4 -37 57
c-36 54 -37 57 -19 68 33 18 65 55 65 74 0 10 -9 81 -20 158 -11 77 -20 141
-20 142 0 2 -24 3 -52 3 -31 0 -71 9 -97 20 -24 11 -44 20 -45 19 0 0 -19 -9
-41 -20z m88 -24 c20 -8 56 -15 81 -15 53 0 49 9 72 -164 l17 -130 -27 -22
c-54 -47 -151 -98 -186 -98 -35 0 -132 51 -186 98 l-27 22 17 130 c23 174 19
164 74 164 26 1 61 7 77 15 39 18 46 18 88 0z m-105 -483 c-12 -20 -23 -39
-25 -41 -1 -2 -8 10 -14 28 -10 29 -15 32 -40 29 -34 -5 -36 4 -9 42 l20 28
44 -24 45 -25 -21 -37z m232 22 c0 -6 -12 -9 -29 -6 -25 3 -30 0 -40 -30 l-12
-33 -21 40 c-12 22 -21 42 -20 44 0 2 18 14 39 26 l38 22 22 -26 c13 -14 23
-31 23 -37z"/>
<path d="M290 568 c-14 -5 -47 -13 -75 -17 l-50 -6 -18 -130 -19 -130 30 -25
c17 -14 60 -41 96 -60 l66 -35 66 35 c36 19 79 46 96 60 l30 25 -19 130 -18
130 -51 6 c-28 4 -60 11 -72 18 -24 13 -29 13 -62 -1z m65 -23 c22 -8 55 -14
73 -15 20 0 32 -5 32 -13 0 -8 7 -60 16 -118 l15 -104 -30 -25 c-16 -14 -55
-38 -85 -54 l-55 -30 -53 29 c-29 15 -68 39 -86 52 -30 22 -33 29 -28 62 3 20
11 73 17 119 l11 82 32 1 c24 0 101 21 101 28 0 0 18 -6 40 -14z"/>
<path d="M255 450 c-25 -49 -45 -101 -45 -115 0 -58 55 -115 110 -115 55 0
110 57 110 115 0 14 -20 66 -45 115 -60 119 -70 119 -130 0z m113 -13 c23 -45
42 -95 42 -110 0 -40 -49 -87 -90 -87 -41 0 -90 47 -90 87 0 25 78 193 90 193
3 0 24 -37 48 -83z"/>
<path d="M290 400 c0 -13 -7 -20 -20 -20 -16 0 -20 -7 -20 -30 0 -23 4 -30 20
-30 13 0 20 -7 20 -20 0 -16 7 -20 30 -20 23 0 30 4 30 20 0 13 7 20 20 20 16
0 20 7 20 30 0 23 -4 30 -20 30 -13 0 -20 7 -20 20 0 16 -7 20 -30 20 -23 0
-30 -4 -30 -20z m40 -20 c0 -13 7 -20 20 -20 11 0 20 -4 20 -10 0 -5 -9 -10
-20 -10 -13 0 -20 -7 -20 -20 0 -11 -4 -20 -10 -20 -5 0 -10 9 -10 20 0 13 -7
20 -20 20 -11 0 -20 5 -20 10 0 6 9 10 20 10 13 0 20 7 20 20 0 11 5 20 10 20
6 0 10 -9 10 -20z"/>
</g>
</svg>
