<?xml version="1.0" standalone="no"?>
<!DOCTYPE svg PUBLIC "-//W3C//DTD SVG 20010904//EN"
 "http://www.w3.org/TR/2001/REC-SVG-20010904/DTD/svg10.dtd">
<svg version="1.0" xmlns="http://www.w3.org/2000/svg"
 width="64.000000pt" height="64.000000pt" viewBox="0 0 64.000000 64.000000"
 preserveAspectRatio="xMidYMid meet">

<g transform="translate(0.000000,64.000000) scale(0.100000,-0.100000)"
fill="#000000" stroke="none">
<path d="M234 602 c-5 -4 -18 -18 -27 -32 -9 -13 -34 -29 -55 -35 -36 -10 -37
-13 -42 -62 -3 -28 -13 -60 -23 -70 -23 -26 -22 -56 3 -78 14 -13 20 -31 20
-61 0 -24 5 -46 10 -49 7 -4 -1 -27 -20 -61 -35 -59 -31 -64 37 -45 31 9 31 8
42 -35 6 -24 15 -44 19 -44 4 0 19 22 35 49 20 37 35 51 57 56 56 12 87 -2
121 -58 l32 -52 13 30 c7 17 13 38 14 49 0 13 5 16 18 11 9 -4 32 -9 51 -12
l34 -6 -32 56 c-19 34 -28 58 -21 62 5 3 10 25 10 49 0 30 6 48 20 61 25 23
25 49 1 84 -11 15 -21 47 -23 71 -3 42 -5 45 -41 55 -24 7 -45 21 -55 38 -21
34 -38 40 -79 26 -24 -8 -42 -8 -65 0 -36 13 -40 13 -54 3z m86 -25 c19 0 45
3 57 7 18 7 24 2 37 -23 11 -21 28 -34 56 -42 38 -12 40 -14 40 -54 0 -25 6
-48 15 -55 24 -20 28 -50 9 -71 -10 -11 -21 -41 -24 -66 -4 -42 -8 -47 -38
-57 -18 -6 -44 -26 -57 -43 -24 -29 -27 -30 -60 -20 -25 7 -45 7 -70 0 -33
-10 -36 -9 -60 20 -13 17 -39 37 -57 43 -30 10 -34 15 -38 57 -3 25 -14 55
-24 66 -19 21 -15 51 9 71 9 7 15 30 15 55 0 40 2 42 40 54 28 8 45 21 56 42
13 25 19 30 37 23 12 -4 38 -7 57 -7z m-119 -408 c33 -35 34 -44 14 -79 l-14
-25 -7 33 c-8 39 -21 47 -57 33 -32 -12 -33 -6 -7 37 24 40 34 40 71 1z m309
-1 c26 -43 25 -49 -7 -37 -36 14 -49 6 -57 -33 l-7 -33 -14 25 c-20 35 -19 44
14 79 37 39 47 39 71 -1z"/>
<path d="M240 497 c-100 -67 -97 -206 6 -264 50 -29 98 -29 148 0 137 77 83
287 -74 287 -32 0 -58 -7 -80 -23z m177 -41 c66 -72 36 -189 -57 -217 -87 -26
-171 35 -172 125 -2 84 61 140 146 133 42 -4 55 -10 83 -41z"/>
<path d="M352 377 l-52 -51 -34 33 c-18 18 -36 29 -39 23 -4 -5 11 -26 32 -46
l39 -38 47 43 c44 41 71 76 63 84 -2 3 -27 -19 -56 -48z"/>
</g>
</svg>
