<?xml version="1.0" standalone="no"?>
<!DOCTYPE svg PUBLIC "-//W3C//DTD SVG 20010904//EN"
 "http://www.w3.org/TR/2001/REC-SVG-20010904/DTD/svg10.dtd">
<svg version="1.0" xmlns="http://www.w3.org/2000/svg"
 width="64.000000pt" height="64.000000pt" viewBox="0 0 64.000000 64.000000"
 preserveAspectRatio="xMidYMid meet">

<g transform="translate(0.000000,64.000000) scale(0.100000,-0.100000)"
fill="#000000" stroke="none">
<path d="M304 627 c-10 -27 0 -72 16 -72 11 0 15 11 15 39 0 40 -20 61 -31 33z"/>
<path d="M140 593 c0 -15 40 -73 49 -73 19 0 20 17 1 48 -18 28 -50 44 -50 25z"/>
<path d="M450 568 c-19 -31 -18 -48 1 -48 9 0 49 58 49 73 0 19 -32 3 -50 -25z"/>
<path d="M26 493 c-14 -14 -4 -30 29 -46 33 -16 54 -9 40 13 -9 15 -62 40 -69
33z"/>
<path d="M572 480 c-31 -19 -38 -31 -26 -43 9 -9 74 25 74 39 0 22 -16 23 -48
4z"/>
<path d="M160 453 c-30 -27 -32 -35 -52 -180 -20 -148 -21 -151 -47 -156 -20
-4 -30 -16 -43 -52 -10 -26 -15 -51 -12 -56 7 -12 621 -12 628 0 3 5 -2 30
-12 56 -13 36 -23 48 -43 52 -26 5 -27 8 -47 156 -20 145 -22 153 -52 180 -30
27 -33 27 -160 27 -127 0 -130 0 -160 -27z m297 -26 c16 -13 24 -46 37 -145
10 -70 20 -135 22 -144 5 -17 -9 -18 -196 -18 -187 0 -201 1 -196 18 2 9 12
73 21 142 10 69 22 131 28 139 21 25 52 31 158 28 86 -2 111 -5 126 -20z m123
-351 c0 -2 3 -11 6 -20 6 -14 -22 -16 -265 -16 -149 0 -271 2 -271 4 0 2 3 11
6 20 5 14 38 16 265 16 142 0 259 -2 259 -4z"/>
<path d="M294 334 c3 -26 6 -57 6 -70 0 -17 6 -24 20 -24 16 0 20 7 20 33 0
17 3 49 6 70 7 36 6 37 -26 37 l-33 0 7 -46z"/>
<path d="M294 199 c-3 -6 1 -18 10 -27 15 -15 17 -15 32 0 9 9 13 21 10 27 -9
14 -43 14 -52 0z"/>
</g>
</svg>
