<svg version="1.0" xmlns="http://www.w3.org/2000/svg" width="32" height="32" viewBox="0 0 24 24"><path d="M7.1 3.4C-1.6 8.2 2.1 22 12 22c5.1 0 10-4.9 10-9.9C22 4.6 13.7-.3 7.1 3.4zm6.7 2.9C14 7.5 13.5 8 12.1 8 10.9 8 10 7.4 10 6.7c0-3.1 3.2-3.4 3.8-.4zM8 6.5C8 7.3 7.3 8 6.4 8 5 8 5 7.7 6 6.5 6.7 5.7 7.4 5 7.6 5c.2 0 .4.7.4 1.5zm10 0c1 1.2 1 1.5-.4 1.5-.9 0-1.6-.7-1.6-1.5s.2-1.5.4-1.5.9.7 1.6 1.5zM7 12c0 1.1-.7 2-1.5 2S4 13.1 4 12s.7-2 1.5-2 1.5.9 1.5 2zm8 0c0 1.6-.7 2-3 2s-3-.4-3-2 .7-2 3-2 3 .4 3 2zm5 0c0 1.1-.7 2-1.5 2s-1.5-.9-1.5-2 .7-2 1.5-2 1.5.9 1.5 2zM8 17.6c0 1.4-.3 1.4-1.5.4-.8-.7-1.5-1.4-1.5-1.6 0-.2.7-.4 1.5-.4s1.5.7 1.5 1.6zm5.8.1c-.4 2.3-3.2 2.3-3.6 0-.2-1.2.3-1.7 1.8-1.7s2 .5 1.8 1.7zm5.2-1.3c0 .2-.7.9-1.5 1.6-1.2 1-1.5 1-1.5-.4 0-.9.7-1.6 1.5-1.6s1.5.2 1.5.4z"/></svg>