<svg width="0" height="0" class="hidden">
  <symbol version="1.0" xmlns="http://www.w3.org/2000/svg" preserveAspectRatio="xMidYMid meet" viewBox="0 0 64.000000 64.000000" id="equality">
    <g transform="translate(0.000000,64.000000) scale(0.100000,-0.100000)" fill="#000000" stroke="none">
      <path d="M275 609 c-23 -10 -62 -19 -92 -19 -29 0 -53 -1 -53 -3 0 -1 -9 -65
-20 -142 -11 -77 -20 -148 -20 -158 0 -19 32 -56 65 -74 18 -11 17 -14 -19
-68 l-37 -57 47 4 48 3 17 -45 16 -44 32 54 c17 30 31 58 31 63 0 4 14 7 30 7
17 0 30 -3 30 -7 0 -5 14 -33 31 -63 l32 -54 16 44 17 45 48 -3 47 -4 -37 57
c-36 54 -37 57 -19 68 33 18 65 55 65 74 0 10 -9 81 -20 158 -11 77 -20 141
-20 142 0 2 -24 3 -52 3 -31 0 -71 9 -97 20 -24 11 -44 20 -45 19 0 0 -19 -9
-41 -20z m88 -24 c20 -8 56 -15 81 -15 53 0 49 9 72 -164 l17 -130 -27 -22
c-54 -47 -151 -98 -186 -98 -35 0 -132 51 -186 98 l-27 22 17 130 c23 174 19
164 74 164 26 1 61 7 77 15 39 18 46 18 88 0z m-105 -483 c-12 -20 -23 -39
-25 -41 -1 -2 -8 10 -14 28 -10 29 -15 32 -40 29 -34 -5 -36 4 -9 42 l20 28
44 -24 45 -25 -21 -37z m232 22 c0 -6 -12 -9 -29 -6 -25 3 -30 0 -40 -30 l-12
-33 -21 40 c-12 22 -21 42 -20 44 0 2 18 14 39 26 l38 22 22 -26 c13 -14 23
-31 23 -37z"></path>
      <path d="M290 568 c-14 -5 -47 -13 -75 -17 l-50 -6 -18 -130 -19 -130 30 -25
c17 -14 60 -41 96 -60 l66 -35 66 35 c36 19 79 46 96 60 l30 25 -19 130 -18
130 -51 6 c-28 4 -60 11 -72 18 -24 13 -29 13 -62 -1z m65 -23 c22 -8 55 -14
73 -15 20 0 32 -5 32 -13 0 -8 7 -60 16 -118 l15 -104 -30 -25 c-16 -14 -55
-38 -85 -54 l-55 -30 -53 29 c-29 15 -68 39 -86 52 -30 22 -33 29 -28 62 3 20
11 73 17 119 l11 82 32 1 c24 0 101 21 101 28 0 0 18 -6 40 -14z"></path>
      <path d="M255 450 c-25 -49 -45 -101 -45 -115 0 -58 55 -115 110 -115 55 0
110 57 110 115 0 14 -20 66 -45 115 -60 119 -70 119 -130 0z m113 -13 c23 -45
42 -95 42 -110 0 -40 -49 -87 -90 -87 -41 0 -90 47 -90 87 0 25 78 193 90 193
3 0 24 -37 48 -83z"></path>
      <path d="M290 400 c0 -13 -7 -20 -20 -20 -16 0 -20 -7 -20 -30 0 -23 4 -30 20
-30 13 0 20 -7 20 -20 0 -16 7 -20 30 -20 23 0 30 4 30 20 0 13 7 20 20 20 16
0 20 7 20 30 0 23 -4 30 -20 30 -13 0 -20 7 -20 20 0 16 -7 20 -30 20 -23 0
-30 -4 -30 -20z m40 -20 c0 -13 7 -20 20 -20 11 0 20 -4 20 -10 0 -5 -9 -10
-20 -10 -13 0 -20 -7 -20 -20 0 -11 -4 -20 -10 -20 -5 0 -10 9 -10 20 0 13 -7
20 -20 20 -11 0 -20 5 -20 10 0 6 9 10 20 10 13 0 20 7 20 20 0 11 5 20 10 20
6 0 10 -9 10 -20z"></path>
    </g>
  </symbol>
  <symbol version="1.0" xmlns="http://www.w3.org/2000/svg" preserveAspectRatio="xMidYMid meet" viewBox="0 0 64.000000 64.000000" id="siren">
    <g transform="translate(0.000000,64.000000) scale(0.100000,-0.100000)" fill="#000000" stroke="none">
      <path d="M304 627 c-10 -27 0 -72 16 -72 11 0 15 11 15 39 0 40 -20 61 -31 33z"></path>
      <path d="M140 593 c0 -15 40 -73 49 -73 19 0 20 17 1 48 -18 28 -50 44 -50 25z"></path>
      <path d="M450 568 c-19 -31 -18 -48 1 -48 9 0 49 58 49 73 0 19 -32 3 -50 -25z"></path>
      <path d="M26 493 c-14 -14 -4 -30 29 -46 33 -16 54 -9 40 13 -9 15 -62 40 -69
33z"></path>
      <path d="M572 480 c-31 -19 -38 -31 -26 -43 9 -9 74 25 74 39 0 22 -16 23 -48
4z"></path>
      <path d="M160 453 c-30 -27 -32 -35 -52 -180 -20 -148 -21 -151 -47 -156 -20
-4 -30 -16 -43 -52 -10 -26 -15 -51 -12 -56 7 -12 621 -12 628 0 3 5 -2 30
-12 56 -13 36 -23 48 -43 52 -26 5 -27 8 -47 156 -20 145 -22 153 -52 180 -30
27 -33 27 -160 27 -127 0 -130 0 -160 -27z m297 -26 c16 -13 24 -46 37 -145
10 -70 20 -135 22 -144 5 -17 -9 -18 -196 -18 -187 0 -201 1 -196 18 2 9 12
73 21 142 10 69 22 131 28 139 21 25 52 31 158 28 86 -2 111 -5 126 -20z m123
-351 c0 -2 3 -11 6 -20 6 -14 -22 -16 -265 -16 -149 0 -271 2 -271 4 0 2 3 11
6 20 5 14 38 16 265 16 142 0 259 -2 259 -4z"></path>
      <path d="M294 334 c3 -26 6 -57 6 -70 0 -17 6 -24 20 -24 16 0 20 7 20 33 0
17 3 49 6 70 7 36 6 37 -26 37 l-33 0 7 -46z"></path>
      <path d="M294 199 c-3 -6 1 -18 10 -27 15 -15 17 -15 32 0 9 9 13 21 10 27 -9
14 -43 14 -52 0z"></path>
    </g>
  </symbol>
  <symbol version="1.0" xmlns="http://www.w3.org/2000/svg" preserveAspectRatio="xMidYMid meet" viewBox="0 0 64.000000 64.000000" id="guarantee">
    <g transform="translate(0.000000,64.000000) scale(0.100000,-0.100000)" fill="#000000" stroke="none">
      <path d="M234 602 c-5 -4 -18 -18 -27 -32 -9 -13 -34 -29 -55 -35 -36 -10 -37
-13 -42 -62 -3 -28 -13 -60 -23 -70 -23 -26 -22 -56 3 -78 14 -13 20 -31 20
-61 0 -24 5 -46 10 -49 7 -4 -1 -27 -20 -61 -35 -59 -31 -64 37 -45 31 9 31 8
42 -35 6 -24 15 -44 19 -44 4 0 19 22 35 49 20 37 35 51 57 56 56 12 87 -2
121 -58 l32 -52 13 30 c7 17 13 38 14 49 0 13 5 16 18 11 9 -4 32 -9 51 -12
l34 -6 -32 56 c-19 34 -28 58 -21 62 5 3 10 25 10 49 0 30 6 48 20 61 25 23
25 49 1 84 -11 15 -21 47 -23 71 -3 42 -5 45 -41 55 -24 7 -45 21 -55 38 -21
34 -38 40 -79 26 -24 -8 -42 -8 -65 0 -36 13 -40 13 -54 3z m86 -25 c19 0 45
3 57 7 18 7 24 2 37 -23 11 -21 28 -34 56 -42 38 -12 40 -14 40 -54 0 -25 6
-48 15 -55 24 -20 28 -50 9 -71 -10 -11 -21 -41 -24 -66 -4 -42 -8 -47 -38
-57 -18 -6 -44 -26 -57 -43 -24 -29 -27 -30 -60 -20 -25 7 -45 7 -70 0 -33
-10 -36 -9 -60 20 -13 17 -39 37 -57 43 -30 10 -34 15 -38 57 -3 25 -14 55
-24 66 -19 21 -15 51 9 71 9 7 15 30 15 55 0 40 2 42 40 54 28 8 45 21 56 42
13 25 19 30 37 23 12 -4 38 -7 57 -7z m-119 -408 c33 -35 34 -44 14 -79 l-14
-25 -7 33 c-8 39 -21 47 -57 33 -32 -12 -33 -6 -7 37 24 40 34 40 71 1z m309
-1 c26 -43 25 -49 -7 -37 -36 14 -49 6 -57 -33 l-7 -33 -14 25 c-20 35 -19 44
14 79 37 39 47 39 71 -1z"></path>
      <path d="M240 497 c-100 -67 -97 -206 6 -264 50 -29 98 -29 148 0 137 77 83
287 -74 287 -32 0 -58 -7 -80 -23z m177 -41 c66 -72 36 -189 -57 -217 -87 -26
-171 35 -172 125 -2 84 61 140 146 133 42 -4 55 -10 83 -41z"></path>
      <path d="M352 377 l-52 -51 -34 33 c-18 18 -36 29 -39 23 -4 -5 11 -26 32 -46
l39 -38 47 43 c44 41 71 76 63 84 -2 3 -27 -19 -56 -48z"></path>
    </g>
  </symbol>
</svg>