<?xml version="1.0" standalone="no"?>
<!DOCTYPE svg PUBLIC "-//W3C//DTD SVG 20010904//EN"
 "http://www.w3.org/TR/2001/REC-SVG-20010904/DTD/svg10.dtd">
<svg version="1.0" xmlns="http://www.w3.org/2000/svg"
 width="24.000000pt" height="24.000000pt" viewBox="0 0 24.000000 24.000000"
 preserveAspectRatio="xMidYMid meet">

<g transform="translate(0.000000,24.000000) scale(0.100000,-0.100000)"
fill="#000000" stroke="none">
<path d="M71 206 c-87 -48 -50 -186 49 -186 51 0 100 49 100 99 0 75 -83 124
-149 87z m67 -29 c2 -12 -3 -17 -17 -17 -12 0 -21 6 -21 13 0 31 32 34 38 4z
m-58 -2 c0 -8 -7 -15 -16 -15 -14 0 -14 3 -4 15 7 8 14 15 16 15 2 0 4 -7 4
-15z m100 0 c10 -12 10 -15 -4 -15 -9 0 -16 7 -16 15 0 8 2 15 4 15 2 0 9 -7
16 -15z m-110 -55 c0 -11 -7 -20 -15 -20 -8 0 -15 9 -15 20 0 11 7 20 15 20 8
0 15 -9 15 -20z m80 0 c0 -16 -7 -20 -30 -20 -23 0 -30 4 -30 20 0 16 7 20 30
20 23 0 30 -4 30 -20z m50 0 c0 -11 -7 -20 -15 -20 -8 0 -15 9 -15 20 0 11 7
20 15 20 8 0 15 -9 15 -20z m-120 -56 c0 -14 -3 -14 -15 -4 -8 7 -15 14 -15
16 0 2 7 4 15 4 8 0 15 -7 15 -16z m58 -1 c-4 -23 -32 -23 -36 0 -2 12 3 17
18 17 15 0 20 -5 18 -17z m52 13 c0 -2 -7 -9 -15 -16 -12 -10 -15 -10 -15 4 0
9 7 16 15 16 8 0 15 -2 15 -4z"/>
</g>
</svg>
