<?xml version="1.0" encoding="utf-8"?><svg viewBox="0 0 85.333 85.333" xmlns="http://www.w3.org/2000/svg" xmlns:xlink="http://www.w3.org/1999/xlink"><style>:root>svg{display:none}:root>svg:target{display:block}</style><svg version="1.0" viewBox="0 0 64 64" id="sprite--equality" xmlns="http://www.w3.org/2000/svg"><path d="M27.5 3.1c-2.3 1-6.2 1.9-9.2 1.9-2.9 0-5.3.1-5.3.3 0 .1-.9 6.5-2 14.2-1.1 7.7-2 14.8-2 15.8 0 1.9 3.2 5.6 6.5 7.4 1.8 1.1 1.7 1.4-1.9 6.8l-3.7 5.7 4.7-.4 4.8-.3 1.7 4.5 1.6 4.4 3.2-5.4c1.7-3 3.1-5.8 3.1-6.3 0-.4 1.4-.7 3-.7 1.7 0 3 .3 3 .7 0 .5 1.4 3.3 3.1 6.3l3.2 5.4 1.6-4.4 1.7-4.5 4.8.3 4.7.4-3.7-5.7c-3.6-5.4-3.7-5.7-1.9-6.8 3.3-1.8 6.5-5.5 6.5-7.4 0-1-.9-8.1-2-15.8-1.1-7.7-2-14.1-2-14.2 0-.2-2.4-.3-5.2-.3-3.1 0-7.1-.9-9.7-2-2.4-1.1-4.4-2-4.5-1.9 0 0-1.9.9-4.1 2zm8.8 2.4c2 .8 5.6 1.5 8.1 1.5 5.3 0 4.9-.9 7.2 16.4l1.7 13-2.7 2.2c-5.4 4.7-15.1 9.8-18.6 9.8-3.5 0-13.2-5.1-18.6-9.8l-2.7-2.2 1.7-13C14.7 6 14.3 7 19.8 7c2.6-.1 6.1-.7 7.7-1.5 3.9-1.8 4.6-1.8 8.8 0zM25.8 53.8c-1.2 2-2.3 3.9-2.5 4.1-.1.2-.8-1-1.4-2.8-1-2.9-1.5-3.2-4-2.9-3.4.5-3.6-.4-.9-4.2l2-2.8 4.4 2.4 4.5 2.5-2.1 3.7zM49 51.6c0 .6-1.2.9-2.9.6-2.5-.3-3 0-4 3l-1.2 3.3-2.1-4c-1.2-2.2-2.1-4.2-2-4.4 0-.2 1.8-1.4 3.9-2.6l3.8-2.2 2.2 2.6C48 49.3 49 51 49 51.6z"/><path d="M29 7.2c-1.4.5-4.7 1.3-7.5 1.7l-5 .6-1.8 13-1.9 13 3 2.5c1.7 1.4 6 4.1 9.6 6l6.6 3.5 6.6-3.5c3.6-1.9 7.9-4.6 9.6-6l3-2.5-1.9-13-1.8-13-5.1-.6c-2.8-.4-6-1.1-7.2-1.8-2.4-1.3-2.9-1.3-6.2.1zm6.5 2.3c2.2.8 5.5 1.4 7.3 1.5 2 0 3.2.5 3.2 1.3s.7 6 1.6 11.8l1.5 10.4-3 2.5c-1.6 1.4-5.5 3.8-8.5 5.4l-5.5 3-5.3-2.9c-2.9-1.5-6.8-3.9-8.6-5.2-3-2.2-3.3-2.9-2.8-6.2.3-2 1.1-7.3 1.7-11.9l1.1-8.2 3.2-.1c2.4 0 10.1-2.1 10.1-2.8 0 0 1.8.6 4 1.4z"/><path d="M25.5 19C23 23.9 21 29.1 21 30.5 21 36.3 26.5 42 32 42s11-5.7 11-11.5c0-1.4-2-6.6-4.5-11.5-6-11.9-7-11.9-13 0zm11.3 1.3c2.3 4.5 4.2 9.5 4.2 11 0 4-4.9 8.7-9 8.7s-9-4.7-9-8.7c0-2.5 7.8-19.3 9-19.3.3 0 2.4 3.7 4.8 8.3z"/><path d="M29 24c0 1.3-.7 2-2 2-1.6 0-2 .7-2 3s.4 3 2 3c1.3 0 2 .7 2 2 0 1.6.7 2 3 2s3-.4 3-2c0-1.3.7-2 2-2 1.6 0 2-.7 2-3s-.4-3-2-3c-1.3 0-2-.7-2-2 0-1.6-.7-2-3-2s-3 .4-3 2zm4 2c0 1.3.7 2 2 2 1.1 0 2 .4 2 1 0 .5-.9 1-2 1-1.3 0-2 .7-2 2 0 1.1-.4 2-1 2-.5 0-1-.9-1-2 0-1.3-.7-2-2-2-1.1 0-2-.5-2-1 0-.6.9-1 2-1 1.3 0 2-.7 2-2 0-1.1.5-2 1-2 .6 0 1 .9 1 2z"/></svg><svg version="1.0" viewBox="0 0 64 64" id="sprite--guarantee" xmlns="http://www.w3.org/2000/svg"><path d="M23.4 3.8c-.5.4-1.8 1.8-2.7 3.2-.9 1.3-3.4 2.9-5.5 3.5-3.6 1-3.7 1.3-4.2 6.2-.3 2.8-1.3 6-2.3 7-2.3 2.6-2.2 5.6.3 7.8 1.4 1.3 2 3.1 2 6.1 0 2.4.5 4.6 1 4.9.7.4-.1 2.7-2 6.1-3.5 5.9-3.1 6.4 3.7 4.5 3.1-.9 3.1-.8 4.2 3.5.6 2.4 1.5 4.4 1.9 4.4.4 0 1.9-2.2 3.5-4.9 2-3.7 3.5-5.1 5.7-5.6 5.6-1.2 8.7.2 12.1 5.8l3.2 5.2 1.3-3c.7-1.7 1.3-3.8 1.4-4.9 0-1.3.5-1.6 1.8-1.1.9.4 3.2.9 5.1 1.2l3.4.6-3.2-5.6c-1.9-3.4-2.8-5.8-2.1-6.2.5-.3 1-2.5 1-4.9 0-3 .6-4.8 2-6.1 2.5-2.3 2.5-4.9.1-8.4-1.1-1.5-2.1-4.7-2.3-7.1-.3-4.2-.5-4.5-4.1-5.5-2.4-.7-4.5-2.1-5.5-3.8-2.1-3.4-3.8-4-7.9-2.6-2.4.8-4.2.8-6.5 0-3.6-1.3-4-1.3-5.4-.3zM32 6.3c1.9 0 4.5-.3 5.7-.7 1.8-.7 2.4-.2 3.7 2.3 1.1 2.1 2.8 3.4 5.6 4.2 3.8 1.2 4 1.4 4 5.4 0 2.5.6 4.8 1.5 5.5 2.4 2 2.8 5 .9 7.1-1 1.1-2.1 4.1-2.4 6.6-.4 4.2-.8 4.7-3.8 5.7-1.8.6-4.4 2.6-5.7 4.3-2.4 2.9-2.7 3-6 2-2.5-.7-4.5-.7-7 0-3.3 1-3.6.9-6-2-1.3-1.7-3.9-3.7-5.7-4.3-3-1-3.4-1.5-3.8-5.7-.3-2.5-1.4-5.5-2.4-6.6-1.9-2.1-1.5-5.1.9-7.1.9-.7 1.5-3 1.5-5.5 0-4 .2-4.2 4-5.4 2.8-.8 4.5-2.1 5.6-4.2 1.3-2.5 1.9-3 3.7-2.3 1.2.4 3.8.7 5.7.7zM20.1 47.1c3.3 3.5 3.4 4.4 1.4 7.9l-1.4 2.5-.7-3.3c-.8-3.9-2.1-4.7-5.7-3.3-3.2 1.2-3.3.6-.7-3.7 2.4-4 3.4-4 7.1-.1zm30.9.1c2.6 4.3 2.5 4.9-.7 3.7-3.6-1.4-4.9-.6-5.7 3.3l-.7 3.3-1.4-2.5c-2-3.5-1.9-4.4 1.4-7.9 3.7-3.9 4.7-3.9 7.1.1z"/><path d="M24 14.3c-10 6.7-9.7 20.6.6 26.4 5 2.9 9.8 2.9 14.8 0C53.1 33 47.7 12 32 12c-3.2 0-5.8.7-8 2.3zm17.7 4.1c6.6 7.2 3.6 18.9-5.7 21.7-8.7 2.6-17.1-3.5-17.2-12.5-.2-8.4 6.1-14 14.6-13.3 4.2.4 5.5 1 8.3 4.1z"/><path d="M35.2 26.3L30 31.4l-3.4-3.3c-1.8-1.8-3.6-2.9-3.9-2.3-.4.5 1.1 2.6 3.2 4.6l3.9 3.8 4.7-4.3c4.4-4.1 7.1-7.6 6.3-8.4-.2-.3-2.7 1.9-5.6 4.8z"/></svg><svg version="1.0" viewBox="0 0 64 64" id="sprite--siren" xmlns="http://www.w3.org/2000/svg"><path d="M30.4 1.3c-1 2.7 0 7.2 1.6 7.2 1.1 0 1.5-1.1 1.5-3.9 0-4-2-6.1-3.1-3.3zM14 4.7c0 1.5 4 7.3 4.9 7.3 1.9 0 2-1.7.1-4.8-1.8-2.8-5-4.4-5-2.5zm31 2.5c-1.9 3.1-1.8 4.8.1 4.8.9 0 4.9-5.8 4.9-7.3 0-1.9-3.2-.3-5 2.5zM2.6 14.7c-1.4 1.4-.4 3 2.9 4.6 3.3 1.6 5.4.9 4-1.3-.9-1.5-6.2-4-6.9-3.3zM57.2 16c-3.1 1.9-3.8 3.1-2.6 4.3.9.9 7.4-2.5 7.4-3.9 0-2.2-1.6-2.3-4.8-.4zM16 18.7c-3 2.7-3.2 3.5-5.2 18-2 14.8-2.1 15.1-4.7 15.6-2 .4-3 1.6-4.3 5.2-1 2.6-1.5 5.1-1.2 5.6.7 1.2 62.1 1.2 62.8 0 .3-.5-.2-3-1.2-5.6-1.3-3.6-2.3-4.8-4.3-5.2-2.6-.5-2.7-.8-4.7-15.6-2-14.5-2.2-15.3-5.2-18C45 16 44.7 16 32 16s-13 0-16 2.7zm29.7 2.6c1.6 1.3 2.4 4.6 3.7 14.5 1 7 2 13.5 2.2 14.4.5 1.7-.9 1.8-19.6 1.8-18.7 0-20.1-.1-19.6-1.8.2-.9 1.2-7.3 2.1-14.2 1-6.9 2.2-13.1 2.8-13.9 2.1-2.5 5.2-3.1 15.8-2.8 8.6.2 11.1.5 12.6 2zM58 56.4c0 .2.3 1.1.6 2 .6 1.4-2.2 1.6-26.5 1.6C17.2 60 5 59.8 5 59.6s.3-1.1.6-2c.5-1.4 3.8-1.6 26.5-1.6 14.2 0 25.9.2 25.9.4z"/><path d="M29.4 30.6c.3 2.6.6 5.7.6 7 0 1.7.6 2.4 2 2.4 1.6 0 2-.7 2-3.3 0-1.7.3-4.9.6-7 .7-3.6.6-3.7-2.6-3.7h-3.3l.7 4.6zm0 13.5c-.3.6.1 1.8 1 2.7 1.5 1.5 1.7 1.5 3.2 0 .9-.9 1.3-2.1 1-2.7-.9-1.4-4.3-1.4-5.2 0z"/></svg></svg>